<?xml version="1.0" encoding="UTF-8"?>
<svg id="Layer_2" data-name="Layer 2" xmlns="http://www.w3.org/2000/svg" viewBox="0 0 765.6 421.2">
  <defs>
    <style>
      .cls-1 {
        fill: #fff;
      }

      .cls-2 {
        fill: none;
      }
    </style>
  </defs>
  <g id="Layer_2_copy_2" data-name="Layer 2 copy 2">
    <g>
      <ellipse class="cls-2" cx="178.09" cy="257.49" rx="27.5" ry="37.2"/>
      <path class="cls-2" d="M283.02,119.01h16.7c1,0,1.71-.99,1.38-1.94l-8.35-23.98c-.45-1.3-2.3-1.3-2.75,0l-8.35,23.98c-.33.95.37,1.94,1.38,1.94Z"/>
      <path class="cls-2" d="M419.39,237.82c0-10.01-8.12-18.13-18.13-18.13h-11.47v36.27h11.47c10.01,0,18.13-8.12,18.13-18.13Z"/>
      <path class="cls-2" d="M472.54,94.45c-.45-1.3-2.3-1.3-2.75,0l-8.35,23.98c-.33.95.37,1.94,1.38,1.94h16.7c1,0,1.71-.99,1.38-1.94l-8.35-23.98Z"/>
      <path class="cls-2" d="M486.52,237.31c-.45-1.3-2.3-1.3-2.75,0l-8.35,23.98c-.33.95.37,1.94,1.38,1.94h16.7c1,0,1.71-.99,1.38-1.94l-8.35-23.98Z"/>
      <path class="cls-1" d="M155.55,58.39l10.69,6.69v98.77l-6.57,9.97c-1.16,1.76.1,4.1,2.21,4.1h39.79c2.09,0,3.35-2.31,2.22-4.07l-6.72-10.47v-42.73h15.08l4.09,17.15c.57,2.41,2.73,4.11,5.21,4.11h0c2.96,0,5.35-2.4,5.35-5.35v-15.91l4.8-22.53h-34.53v-26.13h29.73l8.64,12.07c1.08,1.5,2.81,2.4,4.66,2.4,3.16,0,5.73-2.57,5.73-5.73v-8.74l-.93-23.07h-.65l-11.06.32.36-.23.15-.15-37.05.34h0l-24.39.22h0l-14.32.13c-2.63.02-4.75,2.16-4.75,4.78h0c0,1.65.85,3.18,2.25,4.06Z"/>
      <path class="cls-1" d="M227.94,82.98c-1.64,0-3.17.82-4.08,2.18l-8.54,12.75,16.38.2,1.12-9.66c.34-2.92-1.94-5.48-4.88-5.48Z"/>
      <path class="cls-1" d="M244.9,48.63l-1.21-3.71c-.62-.98-1.7-1.57-2.86-1.57-.89,0-1.74.35-2.37.97l-4.64,4.55,11.09-.1s0-.12,0-.13Z"/>
      <path class="cls-1" d="M274.42,174.01h0c0-.93-.33-1.84-.92-2.56l-6.24-7.51,6.65-19.8h32.93l6.53,18.27-4.37,9.27c-.74,3.36-.14,6.33,3.3,6.33h36.47c.48,0,.93-.08,1.37-.2l-.1.2,14.1.09v-.06l28.4.06h8.07c.43,0,.8-.31.88-.73.63-3.49-.59-7.05-3.23-9.41l-5.71-1.56v-94.23h22.34l2.52,11.1c.71,1.92,2.54,3.19,4.58,3.19,2.37,0,4.4-1.7,4.81-4.04l1.81-10.25v-25.24c0-1.48-1.2-2.69-2.69-2.69h-.73c-.53,0-1.04.15-1.48.45l-6.68,4.41h-76.1l-4.67-4.71c-.66-.67-1.56-1.05-2.51-1.05-1.31,0-2.51.73-3.12,1.88l-2.04,3.87-3.47,23.07-.57,9.19c-.15,2.45,1.79,4.51,4.24,4.51h.03c1.31,0,2.54-.6,3.35-1.63l9.47-12.08h22.47v91.18l-10.27,6.67-.21.43c-.41-.91-1.05-1.7-1.9-2.27l-6.27-4.22-48.09-127.84c-.79-2.09-3.28-2.95-5.19-1.79-6.41,3.9-11.25,9.92-13.67,17.02l-38.39,112.61-6.17,2.44c-3.13,1.24-5.19,4.26-5.19,7.63h0c0,2.21,1.79,4,4,4h37.6c2.21,0,4-1.79,4-4ZM281.65,117.07l8.35-23.98c.45-1.3,2.3-1.3,2.75,0l8.35,23.98c.33.95-.37,1.94-1.38,1.94h-16.7c-1,0-1.71-.99-1.38-1.94Z"/>
      <path class="cls-1" d="M178.49,194.29c-28.22,0-51.1,28.36-51.1,63.33s22.88,63.33,51.1,63.33,51.1-28.36,51.1-63.33-22.88-63.33-51.1-63.33ZM178.09,294.69c-15.19,0-27.5-16.65-27.5-37.2s12.31-37.2,27.5-37.2,27.5,16.65,27.5,37.2-12.31,37.2-27.5,37.2Z"/>
      <path class="cls-1" d="M400.72,273.29c21.65,0,39.2-17.55,39.2-39.2h0c0-21.65-17.55-39.2-39.2-39.2h-36.98c-2.12,0-4.01,1.36-4.68,3.37-.65,1.95-.02,4.1,1.58,5.4l4.88,3.94v101.36l-5.96,4.27c-.99.71-1.58,1.86-1.58,3.08,0,2.09,1.7,3.79,3.79,3.79h34.32c2.19,0,3.96-1.77,3.96-3.96,0-1.56-.92-2.98-2.34-3.62l-7.92-3.55v-35.67h10.93ZM389.79,219.69h11.47c10.01,0,18.13,8.12,18.13,18.13s-8.12,18.13-18.13,18.13h-11.47v-36.27Z"/>
      <path class="cls-1" d="M350.12,195.88h-18.95c-2.58,0-4.96,1.37-6.26,3.59l-29.57,50.67h-2.67l-26.91-50.91c-.83-1.57-2.47-2.56-4.25-2.56h-19.71c-2.5,0-4.53,2.03-4.53,4.53,0,.96.3,1.89.86,2.66l4.82,3.76.12,100.65-6.34,5.36c-.88.74-1.39,1.84-1.39,2.99,0,2.16,1.75,3.92,3.92,3.92h32.17c2.16,0,3.92-1.75,3.92-3.92v-.3c0-1.21-.56-2.35-1.52-3.09l-6.22-4.82-1.18-66.57,22.97,46.4c.59,1.19,1.8,1.94,3.12,1.94h.83c1.28,0,2.45-.7,3.06-1.83l25.61-47.37v64.73l-7.72,8.45c-.75.82-1.17,1.9-1.17,3.01,0,2.47,2,4.47,4.47,4.47h30.26c2.47,0,4.47-2,4.47-4.47v-1.18c0-1.39-.64-2.7-1.74-3.54l-4.96-3.81v-100.17l6.94-5.39c.98-.76,1.56-1.94,1.56-3.18,0-2.22-1.8-4.03-4.03-4.03Z"/>
      <path class="cls-1" d="M714.51,197.85s-30.73,0-30.73,0c-4.12.65-2.34,9.11-.6,11.45,0,0-14.2,37.75-14.2,37.75-5.09,4.39-15.26-31.88-17.05-33.28,0,0,0-6,0-6,4.96-1.34,8.83-8.92,1.58-9.92,0,0-21.53-1.07-28.69-1.07h-23.55l-2.66.2c-2.25.17-4,2.04-4,4.3,0,1.29.58,2.52,1.58,3.34l5.07,4.16v51.31s-37.07-55.65-40.65-61.73l-.03-.52-.25-.02-16.13-1.04-6.83.93c-1.97.27-3.44,1.95-3.44,3.94,0,1.37.71,2.65,1.87,3.37l8.4,5.23v97.53l-2.44,2.06-2.5-1.68-48.09-127.84c-.2-.52-.5-.96-.87-1.32.48.23,1.06.36,1.77.36h119.5c1.86,0,3.37-1.51,3.37-3.37v-38.98c0-5.54-2.66-5.2-4.87-3.95-1.71.97-3.05,2.48-3.94,4.23l-7.78,15.29-43.81-.42V63.25l9.12-6.38c1.22-.85,1.81-2.4,1.39-3.9-.44-1.58-1.97-2.6-3.6-2.6h-39.17c-2.59,0-4.65,2.22-4.41,4.85.13,1.38.96,2.6,2.11,3.37l6.96,4.67v103.17l-1.67-1.12-48.09-127.84c-.79-2.09-3.28-2.95-5.19-1.79-6.41,3.9-11.25,9.92-13.67,17.02l-38.39,112.61-6.17,2.44c-3.13,1.24-5.19,4.26-5.19,7.63h0c0,2.21,1.79,4,4,4h37.6c2.21,0,4-1.79,4-4h0c0-.93-.33-1.84-.92-2.56l-6.24-7.51,6.65-19.8h32.93l6.53,18.27-4.37,9.27c-.49,2.23-.38,4.28.75,5.42-1.07-.57-2.4-.61-3.54.08-6.41,3.9-11.25,9.92-13.67,17.02l-38.39,112.61-6.17,2.44c-3.13,1.24-5.19,4.26-5.19,7.63h0c0,2.21,1.79,4,4,4h37.6c2.21,0,4-1.79,4-4h0c0-.93-.33-1.84-.92-2.56l-6.24-7.51,6.65-19.8h32.93l6.53,18.27-4.37,9.27c-.74,3.36-.14,6.33,3.3,6.33h36.47c.54,0,1.05-.1,1.55-.25h28.5c2.26,0,4.1-1.84,4.1-4.1,0-1.29-.6-2.5-1.63-3.27l-7.9-5.96-2.97-59.08h0l49.22,82.43c1.11,1.92,3.18,3.09,5.4,3.05,3.33-.06,6-2.78,6-6.11v-113.61c40.41,73.56,45.42,96.88-13.19,165.28-2.43,3.25,3.38,8.38,6.08,5.63,41.02-23.25,70.68-64,61.37-108.74-1.23-5.93,31.8-69.92,37.5-73.55,2.52-1.84,1.08-6.2-2.09-6.09ZM479.51,120.36h-16.7c-1,0-1.71-.99-1.38-1.94l8.35-23.98c.45-1.3,2.3-1.3,2.75,0l8.35,23.98c.33.95-.37,1.94-1.38,1.94ZM493.5,263.23h-16.7c-1,0-1.71-.99-1.38-1.94l8.35-23.98c.45-1.3,2.3-1.3,2.75,0l8.35,23.98c.33.95-.37,1.94-1.38,1.94Z"/>
      <path class="cls-1" d="M158.28,382.34c-17.48-6.45-42.8-36.8-42.8-36.8-27.6-30.4-44.57-73.7-44.57-73.7-5.16-16.03-2.62-29.45.65-38.22,3.44-9.2,12.55-15.26,22.32-14.3,8.95.88,13.07,7.03,15.02,10.85.18.35.7,2.91,1.02,3.29,3.32,3.85,9.76,1.74,9.84-3.34,0-.03-.24-2.25-.24-2.28v-40.04s-4.13-4.98-7.43,0-.03,7.05-12.2,7.72c0,0-23.17-4.83-36.57,5.45-13.4,10.28-35,31.48-16.37,84.48,18.63,53,79.78,112.81,111.32,100.8,2.99-1.14,0-3.92,0-3.92Z"/>
    </g>
    <rect class="cls-2" width="765.6" height="421.2"/>
  </g>
</svg>